<svg width="400" height="130" viewBox="0 0 400 130" fill="none" xmlns="http://www.w3.org/2000/svg">
<path opacity="0.3" d="M1.40625 21.7188C3.22917 18.6979 5.49479 15.8333 8.20312 13.125C16.9531 4.375 27.5521 0 40 0C52.4479 0 63.0469 4.40104 71.7969 13.2031C80.599 21.9531 85 32.5521 85 45C85 54.375 82.526 62.6823 77.5781 69.9219L77.6562 70L76.6406 71.1719C75.8073 72.3698 74.8958 73.5417 73.9062 74.6875L47.2656 105H85V125H0L40 82.6562C56.6667 64.4792 65 51.9271 65 45C65 38.0729 62.5521 32.1875 57.6562 27.3438C52.8125 22.4479 46.9271 20 40 20C33.0729 20 27.1875 22.4219 22.3438 27.2656C19.4792 30.1302 17.4479 33.3594 16.25 36.9531L1.40625 21.7188ZM150 130C134.792 130 121.823 123.672 111.094 111.016C100.365 98.3073 95 82.9688 95 65C95 47.0312 100.365 31.7188 111.094 19.0625C121.823 6.35417 134.792 0 150 0C165.208 0 178.177 6.35417 188.906 19.0625C199.635 31.7188 205 47.0312 205 65C205 82.9688 199.635 98.3073 188.906 111.016C178.177 123.672 165.208 130 150 130ZM150 110C159.688 110 167.943 105.625 174.766 96.875C181.589 88.0729 185 77.4479 185 65C185 52.5521 181.589 41.9531 174.766 33.2031C167.943 24.401 159.688 20 150 20C140.312 20 132.057 24.401 125.234 33.2031C118.411 41.9531 115 52.5521 115 65C115 77.4479 118.411 88.0729 125.234 96.875C132.057 105.625 140.312 110 150 110ZM216.406 21.7188C218.229 18.6979 220.495 15.8333 223.203 13.125C231.953 4.375 242.552 0 255 0C267.448 0 278.047 4.40104 286.797 13.2031C295.599 21.9531 300 32.5521 300 45C300 54.375 297.526 62.6823 292.578 69.9219L292.656 70L291.641 71.1719C290.807 72.3698 289.896 73.5417 288.906 74.6875L262.266 105H300V125H215L255 82.6562C271.667 64.4792 280 51.9271 280 45C280 38.0729 277.552 32.1875 272.656 27.3438C267.812 22.4479 261.927 20 255 20C248.073 20 242.188 22.4219 237.344 27.2656C234.479 30.1302 232.448 33.3594 231.25 36.9531L216.406 21.7188ZM315 65V5H395V25H335V45C345 45 353.958 45 361.875 45C369.792 45 376.667 46.6667 382.5 50C393.646 56.3542 399.219 67.2396 399.219 82.6562C399.219 83.4375 399.193 84.2188 399.141 85C399.141 97.4479 394.74 108.073 385.938 116.875C377.188 125.625 366.589 130 354.141 130C341.693 130 331.094 125.599 322.344 116.797C315.781 110.286 311.667 102.708 310 94.0625L329.609 89.9219C330.495 94.7656 332.786 99.0104 336.484 102.656C341.328 107.552 347.214 110 354.141 110C361.068 110 366.953 107.578 371.797 102.734C376.693 97.8385 379.141 91.9271 379.141 85V84.0625C379.141 71.0938 372.24 64.7396 358.438 65C349.479 65 335 65 315 65Z" fill="black"/>
</svg>
