<svg width="345" height="129" viewBox="0 0 345 129" fill="none" xmlns="http://www.w3.org/2000/svg">
<path opacity="0.3" d="M12.1875 21.3906C13.9062 17.6927 16.3021 14.3073 19.375 11.2344C26.1979 4.41146 34.4531 1 44.1406 1C53.8281 1 62.0833 4.41146 68.9062 11.2344C75.7292 18.0573 79.1406 26.3125 79.1406 36C79.1406 44.0729 75.8073 50.7396 69.1406 56C82.474 62.6667 89.1406 72.6667 89.1406 86C89.1406 98.4479 84.7396 109.073 75.9375 117.875C67.1875 126.625 56.5885 131 44.1406 131C31.6927 131 21.0938 126.599 12.3438 117.797C5.78125 111.286 1.66667 103.708 0 95.0625L19.6094 90.9219C20.4948 95.7656 22.7865 100.01 26.4844 103.656C31.3281 108.552 37.2135 111 44.1406 111C51.0677 111 56.9531 108.578 61.7969 103.734C66.6927 98.8385 69.1406 92.9271 69.1406 86C67.5781 75.7917 57.1875 70.6875 37.9688 70.6875C35.2083 70.6875 32.2656 70.7917 29.1406 71V51C49.1406 51 59.1406 46 59.1406 36C59.1406 31.8333 57.6823 28.2917 54.7656 25.375C51.849 22.4583 48.3073 21 44.1406 21C39.974 21 36.4323 22.4583 33.5156 25.375C31.5365 27.3542 30.2083 29.6198 29.5312 32.1719L12.1875 21.3906ZM154.219 131C139.01 131 126.042 124.672 115.312 112.016C104.583 99.3073 99.2188 83.9688 99.2188 66C99.2188 48.0312 104.583 32.7188 115.312 20.0625C126.042 7.35417 139.01 1 154.219 1C169.427 1 182.396 7.35417 193.125 20.0625C203.854 32.7188 209.219 48.0312 209.219 66C209.219 83.9688 203.854 99.3073 193.125 112.016C182.396 124.672 169.427 131 154.219 131ZM154.219 111C163.906 111 172.161 106.625 178.984 97.875C185.807 89.0729 189.219 78.4479 189.219 66C189.219 53.5521 185.807 42.9531 178.984 34.2031C172.161 25.401 163.906 21 154.219 21C144.531 21 136.276 25.401 129.453 34.2031C122.63 42.9531 119.219 53.5521 119.219 66C119.219 78.4479 122.63 89.0729 129.453 97.875C136.276 106.625 144.531 111 154.219 111ZM249.219 126H229.219V40.0625L219.219 46V26L249.219 0.765625V126ZM260.625 22.7188C262.448 19.6979 264.714 16.8333 267.422 14.125C276.172 5.375 286.771 1 299.219 1C311.667 1 322.266 5.40104 331.016 14.2031C339.818 22.9531 344.219 33.5521 344.219 46C344.219 55.375 341.745 63.6823 336.797 70.9219L336.875 71L335.859 72.1719C335.026 73.3698 334.115 74.5417 333.125 75.6875L306.484 106H344.219V126H259.219L299.219 83.6562C315.885 65.4792 324.219 52.9271 324.219 46C324.219 39.0729 321.771 33.1875 316.875 28.3438C312.031 23.4479 306.146 21 299.219 21C292.292 21 286.406 23.4219 281.562 28.2656C278.698 31.1302 276.667 34.3594 275.469 37.9531L260.625 22.7188Z" fill="black"/>
</svg>
