<svg width="415" height="130" viewBox="0 0 415 130" fill="none" xmlns="http://www.w3.org/2000/svg">
<path opacity="0.3" d="M12.1875 20.3906C13.9062 16.6927 16.3021 13.3073 19.375 10.2344C26.1979 3.41146 34.4531 0 44.1406 0C53.8281 0 62.0833 3.41146 68.9062 10.2344C75.7292 17.0573 79.1406 25.3125 79.1406 35C79.1406 43.0729 75.8073 49.7396 69.1406 55C82.474 61.6667 89.1406 71.6667 89.1406 85C89.1406 97.4479 84.7396 108.073 75.9375 116.875C67.1875 125.625 56.5885 130 44.1406 130C31.6927 130 21.0938 125.599 12.3438 116.797C5.78125 110.286 1.66667 102.708 0 94.0625L19.6094 89.9219C20.4948 94.7656 22.7865 99.0104 26.4844 102.656C31.3281 107.552 37.2135 110 44.1406 110C51.0677 110 56.9531 107.578 61.7969 102.734C66.6927 97.8385 69.1406 91.9271 69.1406 85C67.5781 74.7917 57.1875 69.6875 37.9688 69.6875C35.2083 69.6875 32.2656 69.7917 29.1406 70V50C49.1406 50 59.1406 45 59.1406 35C59.1406 30.8333 57.6823 27.2917 54.7656 24.375C51.849 21.4583 48.3073 20 44.1406 20C39.974 20 36.4323 21.4583 33.5156 24.375C31.5365 26.3542 30.2083 28.6198 29.5312 31.1719L12.1875 20.3906ZM154.219 130C139.01 130 126.042 123.672 115.312 111.016C104.583 98.3073 99.2188 82.9688 99.2188 65C99.2188 47.0312 104.583 31.7188 115.312 19.0625C126.042 6.35417 139.01 0 154.219 0C169.427 0 182.396 6.35417 193.125 19.0625C203.854 31.7188 209.219 47.0312 209.219 65C209.219 82.9688 203.854 98.3073 193.125 111.016C182.396 123.672 169.427 130 154.219 130ZM154.219 110C163.906 110 172.161 105.625 178.984 96.875C185.807 88.0729 189.219 77.4479 189.219 65C189.219 52.5521 185.807 41.9531 178.984 33.2031C172.161 24.401 163.906 20 154.219 20C144.531 20 136.276 24.401 129.453 33.2031C122.63 41.9531 119.219 52.5521 119.219 65C119.219 77.4479 122.63 88.0729 129.453 96.875C136.276 105.625 144.531 110 154.219 110ZM219.219 95L239.219 5H259.219L244.219 75H274.219V5H294.219V75H314.219V95H294.219V125H274.219V95H219.219ZM396.953 49.5312C398.359 50.625 399.74 51.8229 401.094 53.125C409.844 61.9271 414.219 72.5521 414.219 85C414.219 97.4479 409.818 108.073 401.016 116.875C392.266 125.625 381.667 130 369.219 130C356.771 130 346.146 125.625 337.344 116.875C328.594 108.073 324.219 97.4479 324.219 85C324.219 72.5521 328.62 61.9271 337.422 53.125C338.724 51.8229 340.078 50.625 341.484 49.5312C338.307 44.4792 336.719 38.8021 336.719 32.5C336.719 23.5417 339.896 15.8854 346.25 9.53125C352.604 3.17708 360.26 0 369.219 0C378.177 0 385.833 3.17708 392.188 9.53125C398.542 15.8854 401.719 23.5417 401.719 32.5C401.719 38.8021 400.13 44.4792 396.953 49.5312ZM369.219 45C372.656 45 375.599 43.776 378.047 41.3281C380.495 38.8802 381.719 35.9375 381.719 32.5C381.719 29.0625 380.495 26.1198 378.047 23.6719C375.599 21.224 372.656 20 369.219 20C365.781 20 362.839 21.224 360.391 23.6719C357.943 26.1198 356.719 29.0625 356.719 32.5C356.719 35.9375 357.943 38.8802 360.391 41.3281C362.839 43.776 365.781 45 369.219 45ZM369.219 110C376.146 110 382.031 107.578 386.875 102.734C391.771 97.8385 394.219 91.9271 394.219 85C394.219 78.0729 391.771 72.1875 386.875 67.3438C382.031 62.4479 376.146 60 369.219 60C362.292 60 356.38 62.4479 351.484 67.3438C346.641 72.1875 344.219 78.0729 344.219 85C344.219 91.9271 346.641 97.8385 351.484 102.734C356.38 107.578 362.292 110 369.219 110Z" fill="black"/>
</svg>
