<svg width="40" height="41" viewBox="0 0 40 41" fill="none" xmlns="http://www.w3.org/2000/svg">
<g filter="url(#filter0_d_11_67)">
<path d="M34.1675 17.69C34.2762 17.7961 34.3625 17.923 34.4214 18.0631C34.4803 18.2031 34.5105 18.3536 34.5103 18.5055C34.51 18.6575 34.4794 18.8078 34.4201 18.9477C34.3608 19.0876 34.274 19.2142 34.165 19.32L20.8725 32.275C20.6391 32.5025 20.326 32.6299 20 32.6299C19.674 32.6299 19.361 32.5025 19.1275 32.275L5.83503 19.32C5.72617 19.214 5.63965 19.0873 5.58057 18.9473C5.52149 18.8073 5.49105 18.6569 5.49105 18.505C5.49105 18.3531 5.52149 18.2027 5.58057 18.0627C5.63965 17.9227 5.72617 17.796 5.83503 17.69C6.05827 17.4719 6.35796 17.3499 6.67003 17.3499C6.9821 17.3499 7.28178 17.4719 7.50503 17.69L20 29.8725L32.5 17.69C32.7232 17.4727 33.0223 17.3511 33.3338 17.3511C33.6452 17.3511 33.9444 17.4727 34.1675 17.69ZM34.1675 7.68999C34.2762 7.79614 34.3626 7.923 34.4214 8.06307C34.4803 8.20314 34.5105 8.35358 34.5103 8.50551C34.51 8.65745 34.4794 8.8078 34.4201 8.94768C34.3608 9.08757 34.274 9.21416 34.165 9.31999L20.8725 22.275C20.6391 22.5025 20.326 22.6299 20 22.6299C19.674 22.6299 19.361 22.5025 19.1275 22.275L5.83503 9.31998C5.72617 9.21399 5.63965 9.08727 5.58057 8.94729C5.52149 8.80731 5.49105 8.65692 5.49105 8.50498C5.49105 8.35305 5.52149 8.20265 5.58057 8.06268C5.63965 7.9227 5.72617 7.79597 5.83503 7.68998C6.05827 7.47193 6.35796 7.34985 6.67003 7.34985C6.9821 7.34985 7.28178 7.47193 7.50503 7.68998L20 19.8725L32.5 7.68999C32.7232 7.47268 33.0223 7.35107 33.3338 7.35107C33.6452 7.35107 33.9444 7.47268 34.1675 7.68999Z" fill="white"/>
</g>
<defs>
<filter id="filter0_d_11_67" x="-4" y="0" width="48" height="48" filterUnits="userSpaceOnUse" color-interpolation-filters="sRGB">
<feFlood flood-opacity="0" result="BackgroundImageFix"/>
<feColorMatrix in="SourceAlpha" type="matrix" values="0 0 0 0 0 0 0 0 0 0 0 0 0 0 0 0 0 0 127 0" result="hardAlpha"/>
<feOffset dy="4"/>
<feGaussianBlur stdDeviation="2"/>
<feComposite in2="hardAlpha" operator="out"/>
<feColorMatrix type="matrix" values="0 0 0 0 0 0 0 0 0 0 0 0 0 0 0 0 0 0 0.25 0"/>
<feBlend mode="normal" in2="BackgroundImageFix" result="effect1_dropShadow_11_67"/>
<feBlend mode="normal" in="SourceGraphic" in2="effect1_dropShadow_11_67" result="shape"/>
</filter>
</defs>
</svg>
