<svg width="40" height="38" viewBox="0 0 40 38" fill="none" xmlns="http://www.w3.org/2000/svg">
<path d="M39.6 0H0.4C0.18 0 0 0.194318 0 0.431818V3.88636C0 4.12386 0.18 4.31818 0.4 4.31818H39.6C39.82 4.31818 40 4.12386 40 3.88636V0.431818C40 0.194318 39.82 0 39.6 0ZM39.6 33.6818H0.4C0.18 33.6818 0 33.8761 0 34.1136V37.5682C0 37.8057 0.18 38 0.4 38H39.6C39.82 38 40 37.8057 40 37.5682V34.1136C40 33.8761 39.82 33.6818 39.6 33.6818ZM39.6 16.8409H0.4C0.18 16.8409 0 17.0352 0 17.2727V20.7273C0 20.9648 0.18 21.1591 0.4 21.1591H39.6C39.82 21.1591 40 20.9648 40 20.7273V17.2727C40 17.0352 39.82 16.8409 39.6 16.8409Z" fill="white"/>
</svg>
